<?xml version="1.0" encoding="UTF-8" standalone="no"?>
<!-- Generator: Adobe Illustrator 17.0.0, SVG Export Plug-In . SVG Version: 6.00 Build 0)  -->

<svg
   xmlns:dc="http://purl.org/dc/elements/1.1/"
   xmlns:cc="http://creativecommons.org/ns#"
   xmlns:rdf="http://www.w3.org/1999/02/22-rdf-syntax-ns#"
   xmlns:svg="http://www.w3.org/2000/svg"
   xmlns="http://www.w3.org/2000/svg"
   xmlns:sodipodi="http://sodipodi.sourceforge.net/DTD/sodipodi-0.dtd"
   xmlns:inkscape="http://www.inkscape.org/namespaces/inkscape"
   version="1.1"
   id="图形"
   x="0px"
   y="0px"
   width="1024px"
   height="1024px"
   viewBox="0 0 1024 1024"
   enable-background="new 0 0 1024 1024"
   xml:space="preserve"
   sodipodi:docname="actionSync_selected.svg"
   inkscape:version="0.92.3 (2405546, 2018-03-11)"><metadata
   id="metadata9"><rdf:RDF><cc:Work
       rdf:about=""><dc:format>image/svg+xml</dc:format><dc:type
         rdf:resource="http://purl.org/dc/dcmitype/StillImage" /></cc:Work></rdf:RDF></metadata><defs
   id="defs7" /><sodipodi:namedview
   pagecolor="#ffffff"
   bordercolor="#666666"
   borderopacity="1"
   objecttolerance="10"
   gridtolerance="10"
   guidetolerance="10"
   inkscape:pageopacity="0"
   inkscape:pageshadow="2"
   inkscape:window-width="760"
   inkscape:window-height="480"
   id="namedview5"
   showgrid="false"
   inkscape:zoom="0.23046875"
   inkscape:cx="512"
   inkscape:cy="512"
   inkscape:window-x="0"
   inkscape:window-y="0"
   inkscape:window-maximized="0"
   inkscape:current-layer="图形" />
<path
   d="m 874.855,404.487 0.247,1.102 C 829.095,246.879 683.017,130.523 510.284,130.523 c -172.235,0 -317.923,115.708 -364.369,273.719 l -0.478,-0.191 c -3.849,8.324 -12.103,15.151 -21.623,14.122 -21.245,-3.36 -26.185,-18.078 -21.986,-34.463 54.361,-174.611 216.62,-301.374 408.457,-301.374 195.34,0 360.017,131.429 411.328,310.983 L 982,376.225 934.004,520.031 811.762,424.412 Z M 42,651.791 89.996,507.987 l 122.242,95.616 -65.521,18.546 c 47.22,156.767 192.217,271.327 363.568,271.327 170.929,0 315.598,-114.012 363.183,-270.18 l 0.097,0.021 c 2.857,-10.324 12.012,-17.93 22.986,-17.93 25.999,0 23.997,29.149 23.997,29.149 -52.544,177.587 -216.318,307.126 -410.263,307.126 -193.668,0 -357.265,-129.16 -410.054,-306.355 z"
   id="path2"
   inkscape:connector-curvature="0"
   style="fill:#448adf" />
</svg>