<svg width="756" height="756" xmlns="http://www.w3.org/2000/svg" xmlns:xlink="http://www.w3.org/1999/xlink"
    overflow="hidden">
    <g>
        <path
            d="M583.402 396.095C583.402 380.011 570.37 366.971 554.294 366.971L425.175 366.971 425.175 237.782C425.175 221.697 412.143 208.658 396.068 208.658 379.992 208.658 366.96 221.697 366.96 237.782L366.96 366.971 237.842 366.971C221.766 366.971 208.734 380.011 208.734 396.095 208.734 412.18 221.766 425.219 237.842 425.219L366.96 425.219 366.96 554.409C366.96 570.493 379.992 583.532 396.068 583.532 412.143 583.532 425.175 570.493 425.175 554.409L425.175 425.219 554.294 425.219C570.37 425.219 583.402 412.18 583.402 396.095ZM644.432 396.427C644.432 533.38 533.469 644.405 396.592 644.405 259.715 644.405 148.751 533.38 148.751 396.427 148.751 259.475 259.715 148.45 396.592 148.45 533.469 148.45 644.432 259.475 644.432 396.427ZM694 396.427C694 232.083 560.846 98.8549 396.592 98.8549 323.368 98.8549 256.326 125.332 204.505 169.24L42.6215 7.26686C32.9056-2.45362 17.1133-2.41896 7.3488 7.35098-2.41574 17.1215-2.45551 32.9227 7.26473 42.6483L169.176 204.654C125.505 256.446 99.1837 323.361 99.1837 396.427 99.1837 560.772 232.338 694 396.592 694 560.846 694 694 560.772 694 396.427Z"
            fill="#448adf" fill-rule="evenodd" transform="matrix(-1.83697e-16 -1 -1 1.83697e-16 725 725)" />
    </g>
</svg>