<svg width="756" height="756" xmlns="http://www.w3.org/2000/svg" xmlns:xlink="http://www.w3.org/1999/xlink"
    overflow="hidden">
    <defs>
        <clipPath id="clip0">
            <rect x="0" y="0" width="756" height="756" />
        </clipPath>
    </defs>
    <g clip-path="url(#clip0)">
        <path
            d="M135 378 135 378 135 378ZM378 135 383.847 135.589C397.066 138.295 407.011 149.991 407.011 164.011L407.011 348.989 591.989 348.989C608.011 348.989 621 361.978 621 378L621 378C621 394.022 608.011 407.011 591.989 407.011L407.011 407.011 407.011 591.989C407.011 608.011 394.022 621 378 621L378 621C361.978 621 348.989 608.011 348.989 591.989L348.989 407.011 164.011 407.011C149.992 407.011 138.295 397.066 135.589 383.847L135 378 135.589 372.153C138.295 358.934 149.992 348.989 164.011 348.989L348.989 348.989 348.989 164.011C348.989 149.991 358.934 138.295 372.153 135.589ZM378 135 378 135 378 135Z"
            fill="#848484" fill-rule="evenodd" />
    </g>
</svg>