<?xml version="1.0" encoding="UTF-8" standalone="no"?>
<!-- Generator: Adobe Illustrator 17.0.0, SVG Export Plug-In . SVG Version: 6.00 Build 0)  -->

<svg
   xmlns:dc="http://purl.org/dc/elements/1.1/"
   xmlns:cc="http://creativecommons.org/ns#"
   xmlns:rdf="http://www.w3.org/1999/02/22-rdf-syntax-ns#"
   xmlns:svg="http://www.w3.org/2000/svg"
   xmlns="http://www.w3.org/2000/svg"
   xmlns:sodipodi="http://sodipodi.sourceforge.net/DTD/sodipodi-0.dtd"
   xmlns:inkscape="http://www.inkscape.org/namespaces/inkscape"
   version="1.1"
   id="图形"
   x="0px"
   y="0px"
   width="1024px"
   height="1024px"
   viewBox="0 0 1024 1024"
   enable-background="new 0 0 1024 1024"
   xml:space="preserve"
   sodipodi:docname="sync6.svg"
   inkscape:version="0.92.3 (2405546, 2018-03-11)"><metadata
   id="metadata9"><rdf:RDF><cc:Work
       rdf:about=""><dc:format>image/svg+xml</dc:format><dc:type
         rdf:resource="http://purl.org/dc/dcmitype/StillImage" /><dc:title></dc:title></cc:Work></rdf:RDF></metadata><defs
   id="defs7" /><sodipodi:namedview
   pagecolor="#ffffff"
   bordercolor="#666666"
   borderopacity="1"
   objecttolerance="10"
   gridtolerance="10"
   guidetolerance="10"
   inkscape:pageopacity="0"
   inkscape:pageshadow="2"
   inkscape:window-width="1366"
   inkscape:window-height="715"
   id="namedview5"
   showgrid="false"
   inkscape:zoom="0.23046875"
   inkscape:cx="-260.33898"
   inkscape:cy="512"
   inkscape:window-x="0"
   inkscape:window-y="0"
   inkscape:window-maximized="1"
   inkscape:current-layer="图形" />
<path
   d="m 249.7217,786.603 -0.76491,-0.83086 c 119.19824,114.44338 303.8835,142.17164 453.47467,55.80514 149.15988,-86.11751 217.47539,-259.16757 178.69331,-419.23212 l 0.50946,-0.0736 c -0.82867,-9.13329 2.906,-19.17266 11.66505,-23.04151 20.07872,-7.71266 31.71589,2.56351 36.27195,18.85283 40.22749,178.39807 -36.91142,369.30754 -203.04715,465.22604 -169.1694,97.67 -377.49835,66.18765 -511.71199,-63.65518 l -43.74968,44.99734 -30.33724,-148.53765 153.67418,21.68748 z m 597.6216,-630.59905 30.33623,148.53592 -153.67266,-21.6849 47.46984,-48.8218 C 652.1995,121.87897 469.34841,95.165601 320.95409,180.8411 172.92524,266.3056 104.6442,437.3774 141.51838,596.41534 l -0.0945,0.0303 c 2.68776,10.36936 -1.43769,21.53386 -10.94146,27.02084 C 107.96662,636.46599 95.125901,610.22122 95.125901,610.22122 51.836842,430.15437 128.8998,236.08331 296.86108,139.11081 464.58249,42.276809 670.84165,72.33416 805.15576,199.39502 Z"
   id="path2"
   inkscape:connector-curvature="0"
   style="fill:#448adf" />
</svg>