<?xml version="1.0" encoding="UTF-8" standalone="no"?>
<!-- Generator: Adobe Illustrator 17.0.0, SVG Export Plug-In . SVG Version: 6.00 Build 0)  -->

<svg
   xmlns:dc="http://purl.org/dc/elements/1.1/"
   xmlns:cc="http://creativecommons.org/ns#"
   xmlns:rdf="http://www.w3.org/1999/02/22-rdf-syntax-ns#"
   xmlns:svg="http://www.w3.org/2000/svg"
   xmlns="http://www.w3.org/2000/svg"
   xmlns:sodipodi="http://sodipodi.sourceforge.net/DTD/sodipodi-0.dtd"
   xmlns:inkscape="http://www.inkscape.org/namespaces/inkscape"
   version="1.1"
   id="图形"
   x="0px"
   y="0px"
   width="1024px"
   height="1024px"
   viewBox="0 0 1024 1024"
   enable-background="new 0 0 1024 1024"
   xml:space="preserve"
   sodipodi:docname="sync2.svg"
   inkscape:version="0.92.3 (2405546, 2018-03-11)"><metadata
   id="metadata9"><rdf:RDF><cc:Work
       rdf:about=""><dc:format>image/svg+xml</dc:format><dc:type
         rdf:resource="http://purl.org/dc/dcmitype/StillImage" /><dc:title></dc:title></cc:Work></rdf:RDF></metadata><defs
   id="defs7" /><sodipodi:namedview
   pagecolor="#ffffff"
   bordercolor="#666666"
   borderopacity="1"
   objecttolerance="10"
   gridtolerance="10"
   guidetolerance="10"
   inkscape:pageopacity="0"
   inkscape:pageshadow="2"
   inkscape:window-width="1366"
   inkscape:window-height="715"
   id="namedview5"
   showgrid="false"
   inkscape:zoom="0.23046875"
   inkscape:cx="-260.33898"
   inkscape:cy="512"
   inkscape:window-x="0"
   inkscape:window-y="0"
   inkscape:window-maximized="1"
   inkscape:current-layer="图形" />
<path
   d="m 879.99765,600.31838 -0.33709,1.07786 C 919.17233,440.94584 850.84307,267.13959 701.2519,180.77309 552.09201,94.655593 368.06851,122.01766 248.83959,235.6362 l -0.31846,-0.40441 c -7.49533,5.2843 -18.05701,7.06965 -25.78707,1.41851 -16.71871,-13.53234 -13.63787,-28.74851 -1.80893,-40.83883 134.38351,-124.037065 338.28542,-152.687543 504.42114,-56.76904 169.1694,97.67 246.06936,293.82935 200.72899,474.98318 L 986.91894,629.41527 873.45018,729.95692 815.39501,586.02743 Z M 35.07206,398.06242 148.53982,297.52251 206.59649,441.44939 140.58064,424.7502 c -37.48978,159.3742 30.80131,331.08457 179.19563,416.76007 148.02885,85.4645 330.32188,59.06171 449.6157,-52.39124 l 0.0735,0.0667 c 7.63623,-7.51235 19.36769,-9.52184 28.87146,-4.03484 22.51579,12.9995 6.20751,37.24227 6.20751,37.24227 C 670.24651,949.91601 463.64456,980.21307 295.68327,883.24057 127.96186,786.40657 50.862701,592.75223 93.743586,412.90236 Z"
   id="path2"
   inkscape:connector-curvature="0"
   style="fill:#448adf" />
</svg>