<?xml version="1.0" encoding="UTF-8" standalone="no"?>
<!-- Generator: Adobe Illustrator 17.0.0, SVG Export Plug-In . SVG Version: 6.00 Build 0)  -->

<svg
   xmlns:dc="http://purl.org/dc/elements/1.1/"
   xmlns:cc="http://creativecommons.org/ns#"
   xmlns:rdf="http://www.w3.org/1999/02/22-rdf-syntax-ns#"
   xmlns:svg="http://www.w3.org/2000/svg"
   xmlns="http://www.w3.org/2000/svg"
   xmlns:sodipodi="http://sodipodi.sourceforge.net/DTD/sodipodi-0.dtd"
   xmlns:inkscape="http://www.inkscape.org/namespaces/inkscape"
   version="1.1"
   id="图形"
   x="0px"
   y="0px"
   width="1024px"
   height="1024px"
   viewBox="0 0 1024 1024"
   enable-background="new 0 0 1024 1024"
   xml:space="preserve"
   sodipodi:docname="sync5.svg"
   inkscape:version="0.92.3 (2405546, 2018-03-11)"><metadata
   id="metadata9"><rdf:RDF><cc:Work
       rdf:about=""><dc:format>image/svg+xml</dc:format><dc:type
         rdf:resource="http://purl.org/dc/dcmitype/StillImage" /><dc:title></dc:title></cc:Work></rdf:RDF></metadata><defs
   id="defs7" /><sodipodi:namedview
   pagecolor="#ffffff"
   bordercolor="#666666"
   borderopacity="1"
   objecttolerance="10"
   gridtolerance="10"
   guidetolerance="10"
   inkscape:pageopacity="0"
   inkscape:pageshadow="2"
   inkscape:window-width="1366"
   inkscape:window-height="715"
   id="namedview5"
   showgrid="false"
   inkscape:zoom="0.23046875"
   inkscape:cx="-260.33898"
   inkscape:cy="512"
   inkscape:window-x="0"
   inkscape:window-y="0"
   inkscape:window-maximized="1"
   inkscape:current-layer="图形" />
<path
   d="m 422.27654,880.62389 -1.07786,-0.3371 C 581.64907,919.79855 755.45533,851.4693 841.82183,701.87813 927.93932,552.71824 900.57726,368.69473 786.95872,249.46581 l 0.40441,-0.31846 c -5.2843,-7.49533 -7.06966,-18.05701 -1.41852,-25.78706 13.53235,-16.71872 28.74852,-13.63788 40.83884,-1.80895 124.03706,134.38352 152.68754,338.28543 56.76903,504.42115 -97.67,169.1694 -293.82934,246.06936 -474.98317,200.72899 L 393.17964,987.54516 292.638,874.0764 436.56748,816.02122 Z M 624.53251,35.698291 725.07241,149.16605 581.14553,207.22271 597.84472,141.20687 C 438.47053,103.71709 266.76015,172.00818 181.08465,320.4025 95.62016,468.43135 122.02294,650.72439 233.47589,770.0182 l -0.0667,0.0735 c 7.51235,7.63624 9.52185,19.36771 4.03484,28.87146 -12.9995,22.5158 -37.24227,6.20752 -37.24227,6.20752 C 72.678915,670.87275 42.381861,464.2708 139.35435,296.30951 236.18835,128.5881 429.8427,51.488948 609.69256,94.369828 Z"
   id="path2"
   inkscape:connector-curvature="0"
   style="fill:#448adf" />
</svg>