<?xml version="1.0" encoding="UTF-8" standalone="no"?>
<!-- Generator: Adobe Illustrator 17.0.0, SVG Export Plug-In . SVG Version: 6.00 Build 0)  -->

<svg
   xmlns:dc="http://purl.org/dc/elements/1.1/"
   xmlns:cc="http://creativecommons.org/ns#"
   xmlns:rdf="http://www.w3.org/1999/02/22-rdf-syntax-ns#"
   xmlns:svg="http://www.w3.org/2000/svg"
   xmlns="http://www.w3.org/2000/svg"
   xmlns:sodipodi="http://sodipodi.sourceforge.net/DTD/sodipodi-0.dtd"
   xmlns:inkscape="http://www.inkscape.org/namespaces/inkscape"
   version="1.1"
   id="图形"
   x="0px"
   y="0px"
   width="1024px"
   height="1024px"
   viewBox="0 0 1024 1024"
   enable-background="new 0 0 1024 1024"
   xml:space="preserve"
   sodipodi:docname="sync10.svg"
   inkscape:version="0.92.3 (2405546, 2018-03-11)"><metadata
   id="metadata9"><rdf:RDF><cc:Work
       rdf:about=""><dc:format>image/svg+xml</dc:format><dc:type
         rdf:resource="http://purl.org/dc/dcmitype/StillImage" /><dc:title></dc:title></cc:Work></rdf:RDF></metadata><defs
   id="defs7" /><sodipodi:namedview
   pagecolor="#ffffff"
   bordercolor="#666666"
   borderopacity="1"
   objecttolerance="10"
   gridtolerance="10"
   guidetolerance="10"
   inkscape:pageopacity="0"
   inkscape:pageshadow="2"
   inkscape:window-width="1366"
   inkscape:window-height="715"
   id="namedview5"
   showgrid="false"
   inkscape:zoom="0.23046875"
   inkscape:cx="-260.33898"
   inkscape:cy="512"
   inkscape:window-x="0"
   inkscape:window-y="0"
   inkscape:window-maximized="1"
   inkscape:current-layer="图形" />
<path
   d="m 403.86076,147.73991 1.102,-0.247 c -158.70999,46.007 -275.066,192.08501 -275.066,364.818 0,172.23501 115.708,317.92302 273.71901,364.36902 l -0.19098,0.478 c 8.32399,3.84901 15.151,12.10301 14.12201,21.623 -3.36,21.24501 -18.07801,26.18501 -34.463,21.986 C 208.47278,866.40593 81.709782,704.14694 81.709786,512.30991 81.709787,316.96993 213.13878,152.29294 392.69279,100.98194 l -17.094,-60.387008 143.806,47.996004 -95.619,122.242004 z m 247.304,832.855 -143.804,-47.996 95.61601,-122.24197 18.546,65.52098 c 156.76699,-47.22 271.32699,-192.21699 271.32699,-363.568 0,-170.92899 -114.01201,-315.59801 -270.17999,-363.183 l 0.021,-0.097 c -10.32402,-2.85701 -17.93003,-12.01202 -17.93001,-22.986 -10e-6,-25.99902 29.14899,-23.99703 29.14899,-23.99703 177.58699,52.54402 307.12597,216.31802 307.12598,410.26301 0,193.66799 -129.16001,357.265 -306.35501,410.05401 z"
   id="path2"
   inkscape:connector-curvature="0"
   style="fill:#448adf" />
</svg>