<?xml version="1.0" encoding="UTF-8" standalone="no"?>
<!-- Generator: Adobe Illustrator 17.0.0, SVG Export Plug-In . SVG Version: 6.00 Build 0)  -->

<svg
   xmlns:dc="http://purl.org/dc/elements/1.1/"
   xmlns:cc="http://creativecommons.org/ns#"
   xmlns:rdf="http://www.w3.org/1999/02/22-rdf-syntax-ns#"
   xmlns:svg="http://www.w3.org/2000/svg"
   xmlns="http://www.w3.org/2000/svg"
   xmlns:sodipodi="http://sodipodi.sourceforge.net/DTD/sodipodi-0.dtd"
   xmlns:inkscape="http://www.inkscape.org/namespaces/inkscape"
   version="1.1"
   id="图形"
   x="0px"
   y="0px"
   width="1024px"
   height="1024px"
   viewBox="0 0 1024 1024"
   enable-background="new 0 0 1024 1024"
   xml:space="preserve"
   sodipodi:docname="sync12.svg"
   inkscape:version="0.92.3 (2405546, 2018-03-11)"><metadata
   id="metadata9"><rdf:RDF><cc:Work
       rdf:about=""><dc:format>image/svg+xml</dc:format><dc:type
         rdf:resource="http://purl.org/dc/dcmitype/StillImage" /><dc:title></dc:title></cc:Work></rdf:RDF></metadata><defs
   id="defs7" /><sodipodi:namedview
   pagecolor="#ffffff"
   bordercolor="#666666"
   borderopacity="1"
   objecttolerance="10"
   gridtolerance="10"
   guidetolerance="10"
   inkscape:pageopacity="0"
   inkscape:pageshadow="2"
   inkscape:window-width="1366"
   inkscape:window-height="715"
   id="namedview5"
   showgrid="false"
   inkscape:zoom="0.23046875"
   inkscape:cx="-260.33898"
   inkscape:cy="512"
   inkscape:window-x="0"
   inkscape:window-y="0"
   inkscape:window-maximized="1"
   inkscape:current-layer="图形" />
<path
   d="m 772.24699,236.61814 0.7649,0.83087 C 653.81367,123.00562 469.1284,95.277364 319.53724,181.64386 170.37734,267.76137 102.06183,440.81144 140.84391,600.87598 l -0.50944,0.0736 c 0.82865,9.1333 -2.90602,19.17267 -11.66507,23.04153 -20.07872,7.71266 -31.715887,-2.56351 -36.271928,-18.85284 C 52.169968,426.7402 129.30887,235.83073 295.44461,139.91222 464.61401,42.24223 672.94296,73.724585 807.15659,203.56742 l 43.74969,-44.99734 30.33723,148.53765 -153.67418,-21.68748 z M 174.6254,867.21719 144.28915,718.68128 297.96181,740.36619 250.49198,789.18798 C 369.76919,901.34218 552.62027,928.05555 701.0146,842.38004 849.04344,756.91556 917.32448,585.84375 880.4503,426.80582 l 0.0945,-0.0303 c -2.68776,-10.36936 1.4377,-21.53387 10.94145,-27.02084 22.51581,-12.99952 35.35654,13.24524 35.35654,13.24524 43.28904,180.06686 -33.77392,374.13791 -201.7352,471.11041 -167.7214,96.83399 -373.98057,66.77665 -508.2947,-60.28421 z"
   id="path2"
   inkscape:connector-curvature="0"
   style="fill:#448adf" />
</svg>