<?xml version="1.0" encoding="UTF-8" standalone="no"?>
<!-- Generator: Adobe Illustrator 17.0.0, SVG Export Plug-In . SVG Version: 6.00 Build 0)  -->

<svg
   xmlns:dc="http://purl.org/dc/elements/1.1/"
   xmlns:cc="http://creativecommons.org/ns#"
   xmlns:rdf="http://www.w3.org/1999/02/22-rdf-syntax-ns#"
   xmlns:svg="http://www.w3.org/2000/svg"
   xmlns="http://www.w3.org/2000/svg"
   xmlns:sodipodi="http://sodipodi.sourceforge.net/DTD/sodipodi-0.dtd"
   xmlns:inkscape="http://www.inkscape.org/namespaces/inkscape"
   version="1.1"
   id="图形"
   x="0px"
   y="0px"
   width="1024px"
   height="1024px"
   viewBox="0 0 1024 1024"
   enable-background="new 0 0 1024 1024"
   xml:space="preserve"
   sodipodi:docname="sync8.svg"
   inkscape:version="0.92.3 (2405546, 2018-03-11)"><metadata
   id="metadata9"><rdf:RDF><cc:Work
       rdf:about=""><dc:format>image/svg+xml</dc:format><dc:type
         rdf:resource="http://purl.org/dc/dcmitype/StillImage" /><dc:title></dc:title></cc:Work></rdf:RDF></metadata><defs
   id="defs7" /><sodipodi:namedview
   pagecolor="#ffffff"
   bordercolor="#666666"
   borderopacity="1"
   objecttolerance="10"
   gridtolerance="10"
   guidetolerance="10"
   inkscape:pageopacity="0"
   inkscape:pageshadow="2"
   inkscape:window-width="1366"
   inkscape:window-height="715"
   id="namedview5"
   showgrid="false"
   inkscape:zoom="0.23046875"
   inkscape:cx="-260.33898"
   inkscape:cy="512"
   inkscape:window-x="0"
   inkscape:window-y="0"
   inkscape:window-maximized="1"
   inkscape:current-layer="图形" />
<path
   d="m 141.97103,422.90277 0.3371,-1.07786 c -39.51177,160.45039 28.81749,334.25665 178.40865,420.62315 149.1599,86.1175 333.1834,58.75543 452.41233,-54.86311 l 0.31846,0.4044 c 7.49534,-5.28429 18.05701,-7.06965 25.78707,-1.41852 16.71872,13.53235 13.63788,28.74852 1.80894,40.83884 C 666.66007,951.44674 462.75816,980.09722 296.62243,884.1787 127.45304,786.50871 50.553078,590.34937 95.893445,409.19553 L 35.049767,393.80587 148.51853,293.26422 206.57371,437.19371 Z M 986.89662,625.15873 873.42887,725.69864 815.37221,581.77176 881.38805,598.47095 C 918.87782,439.09675 850.58674,267.38638 702.19242,181.71088 554.16357,96.246389 371.87052,122.64917 252.57672,234.10212 l -0.0735,-0.0667 c -7.63625,7.51235 -19.36772,9.52185 -28.87146,4.03484 -22.51582,-12.9995 -6.20754,-37.24228 -6.20754,-37.24228 C 351.72216,73.305147 558.3241,43.008094 726.2854,139.98058 c 167.7214,96.834 244.82056,290.48835 201.93968,470.33822 z"
   id="path2"
   inkscape:connector-curvature="0"
   style="fill:#448adf" />
</svg>