<?xml version="1.0" encoding="UTF-8" standalone="no"?>
<!-- Generator: Adobe Illustrator 17.0.0, SVG Export Plug-In . SVG Version: 6.00 Build 0)  -->

<svg
   xmlns:dc="http://purl.org/dc/elements/1.1/"
   xmlns:cc="http://creativecommons.org/ns#"
   xmlns:rdf="http://www.w3.org/1999/02/22-rdf-syntax-ns#"
   xmlns:svg="http://www.w3.org/2000/svg"
   xmlns="http://www.w3.org/2000/svg"
   xmlns:sodipodi="http://sodipodi.sourceforge.net/DTD/sodipodi-0.dtd"
   xmlns:inkscape="http://www.inkscape.org/namespaces/inkscape"
   version="1.1"
   id="图形"
   x="0px"
   y="0px"
   width="1024px"
   height="1024px"
   viewBox="0 0 1024 1024"
   enable-background="new 0 0 1024 1024"
   xml:space="preserve"
   sodipodi:docname="sync9.svg"
   inkscape:version="0.92.3 (2405546, 2018-03-11)"><metadata
   id="metadata9"><rdf:RDF><cc:Work
       rdf:about=""><dc:format>image/svg+xml</dc:format><dc:type
         rdf:resource="http://purl.org/dc/dcmitype/StillImage" /><dc:title></dc:title></cc:Work></rdf:RDF></metadata><defs
   id="defs7" /><sodipodi:namedview
   pagecolor="#ffffff"
   bordercolor="#666666"
   borderopacity="1"
   objecttolerance="10"
   gridtolerance="10"
   guidetolerance="10"
   inkscape:pageopacity="0"
   inkscape:pageshadow="2"
   inkscape:window-width="1366"
   inkscape:window-height="715"
   id="namedview5"
   showgrid="false"
   inkscape:zoom="0.23046875"
   inkscape:cx="-260.33898"
   inkscape:cy="512"
   inkscape:window-x="0"
   inkscape:window-y="0"
   inkscape:window-maximized="1"
   inkscape:current-layer="图形" />
<path
   d="m 235.99192,250.34793 0.83086,-0.76491 C 122.37939,368.78125 94.651137,553.46652 181.01763,703.05768 267.13514,852.21757 440.18521,920.53308 600.24976,881.751 l 0.0736,0.50945 c 9.1333,-0.82866 19.17266,2.90601 23.04152,11.66506 7.71266,20.07872 -2.56351,31.71589 -18.85283,36.27194 C 426.11397,970.42495 235.2045,893.28604 139.28599,727.1503 41.615999,557.98091 73.098348,349.65196 202.94118,215.43832 L 157.94384,171.68864 306.48149,141.3514 284.79401,295.02558 Z m 630.59904,597.62159 -148.53591,30.33624 21.6849,-153.67266 48.8218,47.46984 C 900.71594,652.82572 927.42932,469.97464 841.75382,321.58032 756.28932,173.55147 585.21752,105.27043 426.17958,142.14461 l -0.0303,-0.0945 c -10.36937,2.68776 -21.53387,-1.4377 -27.02084,-10.94146 -12.99952,-22.5158 13.24525,-35.356527 13.24525,-35.356527 180.06685,-43.289043 374.1379,33.773907 471.11041,201.735197 96.83399,167.7214 66.77665,373.98057 -60.28422,508.29469 z"
   id="path2"
   inkscape:connector-curvature="0"
   style="fill:#448adf" />
</svg>