<?xml version="1.0" encoding="UTF-8" standalone="no"?>
<!-- Generator: Adobe Illustrator 17.0.0, SVG Export Plug-In . SVG Version: 6.00 Build 0)  -->

<svg
   xmlns:dc="http://purl.org/dc/elements/1.1/"
   xmlns:cc="http://creativecommons.org/ns#"
   xmlns:rdf="http://www.w3.org/1999/02/22-rdf-syntax-ns#"
   xmlns:svg="http://www.w3.org/2000/svg"
   xmlns="http://www.w3.org/2000/svg"
   xmlns:sodipodi="http://sodipodi.sourceforge.net/DTD/sodipodi-0.dtd"
   xmlns:inkscape="http://www.inkscape.org/namespaces/inkscape"
   version="1.1"
   id="图形"
   x="0px"
   y="0px"
   width="1024px"
   height="1024px"
   viewBox="0 0 1024 1024"
   enable-background="new 0 0 1024 1024"
   xml:space="preserve"
   sodipodi:docname="sync11.svg"
   inkscape:version="0.92.3 (2405546, 2018-03-11)"><metadata
   id="metadata9"><rdf:RDF><cc:Work
       rdf:about=""><dc:format>image/svg+xml</dc:format><dc:type
         rdf:resource="http://purl.org/dc/dcmitype/StillImage" /><dc:title></dc:title></cc:Work></rdf:RDF></metadata><defs
   id="defs7" /><sodipodi:namedview
   pagecolor="#ffffff"
   bordercolor="#666666"
   borderopacity="1"
   objecttolerance="10"
   gridtolerance="10"
   guidetolerance="10"
   inkscape:pageopacity="0"
   inkscape:pageshadow="2"
   inkscape:window-width="1366"
   inkscape:window-height="715"
   id="namedview5"
   showgrid="false"
   inkscape:zoom="0.23046875"
   inkscape:cx="-260.33898"
   inkscape:cy="512"
   inkscape:window-x="0"
   inkscape:window-y="0"
   inkscape:window-maximized="1"
   inkscape:current-layer="图形" />
<path
   d="m 599.69214,142.59726 1.07786,0.3371 c -160.45038,-39.51177 -334.25665,28.81749 -420.62314,178.40865 -86.117507,149.1599 -58.75544,333.18341 54.8631,452.41233 l -0.40439,0.31847 c 5.28428,7.49534 7.06965,18.05702 1.41852,25.78708 -13.53235,16.71872 -28.74852,13.63788 -40.83883,1.80893 C 71.148178,667.2863 42.497696,463.3844 138.41621,297.24866 236.08621,128.07927 432.24555,51.179314 613.39938,96.51969 L 628.78905,35.676007 729.33069,149.14477 585.40121,207.19995 Z M 397.43619,987.52285 296.89627,874.0551 440.82315,815.99845 424.12397,882.01428 c 159.37419,37.48978 331.08456,-30.8013 416.76006,-179.19563 85.4645,-148.02884 59.06171,-330.32189 -52.39123,-449.61569 l 0.0667,-0.0735 c -7.51235,-7.63625 -9.52185,-19.36773 -4.03484,-28.87146 12.9995,-22.51582 37.24228,-6.20755 37.24228,-6.20755 127.52284,134.29795 157.81988,340.89989 60.8474,508.86118 -96.834,167.7214 -290.48835,244.82056 -470.33823,201.93969 z"
   id="path2"
   inkscape:connector-curvature="0"
   style="fill:#448adf" />
</svg>