<?xml version="1.0" encoding="UTF-8" standalone="no"?>
<!-- Generator: Adobe Illustrator 17.0.0, SVG Export Plug-In . SVG Version: 6.00 Build 0)  -->

<svg
   xmlns:dc="http://purl.org/dc/elements/1.1/"
   xmlns:cc="http://creativecommons.org/ns#"
   xmlns:rdf="http://www.w3.org/1999/02/22-rdf-syntax-ns#"
   xmlns:svg="http://www.w3.org/2000/svg"
   xmlns="http://www.w3.org/2000/svg"
   xmlns:sodipodi="http://sodipodi.sourceforge.net/DTD/sodipodi-0.dtd"
   xmlns:inkscape="http://www.inkscape.org/namespaces/inkscape"
   version="1.1"
   id="图形"
   x="0px"
   y="0px"
   width="1024px"
   height="1024px"
   viewBox="0 0 1024 1024"
   enable-background="new 0 0 1024 1024"
   xml:space="preserve"
   sodipodi:docname="sync3.svg"
   inkscape:version="0.92.3 (2405546, 2018-03-11)"><metadata
   id="metadata9"><rdf:RDF><cc:Work
       rdf:about=""><dc:format>image/svg+xml</dc:format><dc:type
         rdf:resource="http://purl.org/dc/dcmitype/StillImage" /><dc:title></dc:title></cc:Work></rdf:RDF></metadata><defs
   id="defs7" /><sodipodi:namedview
   pagecolor="#ffffff"
   bordercolor="#666666"
   borderopacity="1"
   objecttolerance="10"
   gridtolerance="10"
   guidetolerance="10"
   inkscape:pageopacity="0"
   inkscape:pageshadow="2"
   inkscape:window-width="1366"
   inkscape:window-height="715"
   id="namedview5"
   showgrid="false"
   inkscape:zoom="0.23046875"
   inkscape:cx="-260.33898"
   inkscape:cy="512"
   inkscape:window-x="0"
   inkscape:window-y="0"
   inkscape:window-maximized="1"
   inkscape:current-layer="图形" />
<path
   d="m 785.97677,772.87322 -0.83086,0.76491 C 899.5893,654.43989 927.31755,469.75463 840.95105,320.16346 754.83354,171.00358 581.78348,102.68807 421.71894,141.47015 l -0.0736,-0.50946 c -9.13329,0.82868 -19.17265,-2.906 -23.04151,-11.66506 -7.71266,-20.07871 2.56351,-31.71588 18.85283,-36.271934 178.39807,-40.227494 369.30754,36.911414 465.22605,203.047144 97.66999,169.1694 66.18764,377.49836 -63.65519,511.71199 l 44.99734,43.74968 -148.53765,30.33724 21.68749,-153.67418 z M 155.37772,175.25162 303.91364,144.91539 282.22875,298.58805 233.40694,251.11821 c -112.1542,119.27721 -138.867568,302.1283 -53.19207,450.52262 85.4645,148.02885 256.53629,216.30988 415.57424,179.43571 l 0.0303,0.0945 c 10.36935,-2.68777 21.53384,1.43769 27.02084,10.94146 12.9995,22.51579 -13.24527,35.3565 -13.24527,35.3565 C 429.52813,970.75807 235.45707,893.69512 138.48457,725.73383 41.650571,558.01242 71.707911,351.75326 198.76878,217.43915 Z"
   id="path2"
   inkscape:connector-curvature="0"
   style="fill:#448adf" />
</svg>