<?xml version="1.0" encoding="UTF-8" standalone="no"?>
<!-- Generator: Adobe Illustrator 17.0.0, SVG Export Plug-In . SVG Version: 6.00 Build 0)  -->

<svg
   xmlns:dc="http://purl.org/dc/elements/1.1/"
   xmlns:cc="http://creativecommons.org/ns#"
   xmlns:rdf="http://www.w3.org/1999/02/22-rdf-syntax-ns#"
   xmlns:svg="http://www.w3.org/2000/svg"
   xmlns="http://www.w3.org/2000/svg"
   xmlns:sodipodi="http://sodipodi.sourceforge.net/DTD/sodipodi-0.dtd"
   xmlns:inkscape="http://www.inkscape.org/namespaces/inkscape"
   version="1.1"
   id="图形"
   x="0px"
   y="0px"
   width="1024px"
   height="1024px"
   viewBox="0 0 1024 1024"
   enable-background="new 0 0 1024 1024"
   xml:space="preserve"
   sodipodi:docname="sync7.svg"
   inkscape:version="0.92.3 (2405546, 2018-03-11)"><metadata
   id="metadata9"><rdf:RDF><cc:Work
       rdf:about=""><dc:format>image/svg+xml</dc:format><dc:type
         rdf:resource="http://purl.org/dc/dcmitype/StillImage" /><dc:title></dc:title></cc:Work></rdf:RDF></metadata><defs
   id="defs7" /><sodipodi:namedview
   pagecolor="#ffffff"
   bordercolor="#666666"
   borderopacity="1"
   objecttolerance="10"
   gridtolerance="10"
   guidetolerance="10"
   inkscape:pageopacity="0"
   inkscape:pageshadow="2"
   inkscape:window-width="1366"
   inkscape:window-height="715"
   id="namedview5"
   showgrid="false"
   inkscape:zoom="0.23046875"
   inkscape:cx="-260.33898"
   inkscape:cy="512"
   inkscape:window-x="0"
   inkscape:window-y="0"
   inkscape:window-maximized="1"
   inkscape:current-layer="图形" />
<path
   d="m 147.11368,618.73415 -0.247,-1.102 c 46.00701,158.71 192.08501,275.06601 364.81801,275.06601 172.235,-10e-6 317.923,-115.70801 364.36901,-273.71901 l 0.478,0.19099 c 3.849,-8.324 12.103,-15.15101 21.62299,-14.12201 21.24501,3.36 26.18501,18.07801 21.98601,34.463 -54.361,174.61101 -216.61999,301.37401 -408.45701,301.374 -195.33999,0 -360.01698,-131.42899 -411.32799,-310.983 l -60.387003,17.094 47.996005,-143.806 122.242008,95.619 z m 832.85501,-247.30399 -47.99601,143.80399 -122.24198,-95.616 65.52099,-18.546 c -47.22,-156.76699 -192.217,-271.32699 -363.568,-271.32699 -170.92899,0 -315.59801,114.012 -363.183,270.17999 l -0.097,-0.021 c -2.85701,10.32401 -12.01201,17.93002 -22.986,17.93 -25.999015,1e-5 -23.99702,-29.14899 -23.99702,-29.14899 52.544,-177.58699 216.31801,-307.125982 410.263,-307.125991 193.668,0 357.265,129.160011 410.054,306.355001 z"
   id="path2"
   inkscape:connector-curvature="0"
   style="fill:#448adf" />
</svg>