<?xml version="1.0" encoding="UTF-8" standalone="no"?>
<!-- Generator: Adobe Illustrator 17.0.0, SVG Export Plug-In . SVG Version: 6.00 Build 0)  -->

<svg
   xmlns:dc="http://purl.org/dc/elements/1.1/"
   xmlns:cc="http://creativecommons.org/ns#"
   xmlns:rdf="http://www.w3.org/1999/02/22-rdf-syntax-ns#"
   xmlns:svg="http://www.w3.org/2000/svg"
   xmlns="http://www.w3.org/2000/svg"
   xmlns:sodipodi="http://sodipodi.sourceforge.net/DTD/sodipodi-0.dtd"
   xmlns:inkscape="http://www.inkscape.org/namespaces/inkscape"
   version="1.1"
   id="图形"
   x="0px"
   y="0px"
   width="1024px"
   height="1024px"
   viewBox="0 0 1024 1024"
   enable-background="new 0 0 1024 1024"
   xml:space="preserve"
   sodipodi:docname="sync4.svg"
   inkscape:version="0.92.3 (2405546, 2018-03-11)"><metadata
   id="metadata9"><rdf:RDF><cc:Work
       rdf:about=""><dc:format>image/svg+xml</dc:format><dc:type
         rdf:resource="http://purl.org/dc/dcmitype/StillImage" /><dc:title></dc:title></cc:Work></rdf:RDF></metadata><defs
   id="defs7" /><sodipodi:namedview
   pagecolor="#ffffff"
   bordercolor="#666666"
   borderopacity="1"
   objecttolerance="10"
   gridtolerance="10"
   guidetolerance="10"
   inkscape:pageopacity="0"
   inkscape:pageshadow="2"
   inkscape:window-width="1366"
   inkscape:window-height="715"
   id="namedview5"
   showgrid="false"
   inkscape:zoom="0.23046875"
   inkscape:cx="-260.33898"
   inkscape:cy="512"
   inkscape:window-x="0"
   inkscape:window-y="0"
   inkscape:window-maximized="1"
   inkscape:current-layer="图形" />
<path
   d="m 618.10792,875.48124 -1.102,0.247 c 158.71,-46.00701 275.066,-192.08501 275.06601,-364.81801 -2e-5,-172.235 -115.70801,-317.923 -273.71901,-364.36901 l 0.19099,-0.478 c -8.324,-3.84899 -15.151,-12.103 -14.122,-21.62299 3.36,-21.24501 18.07801,-26.185007 34.463,-21.98601 174.611,54.36101 301.374,216.62 301.374,408.45701 0,195.34 -131.429,360.01699 -310.983,411.32799 l 17.094,60.38701 -143.806,-47.99601 95.619,-122.242 z M 370.80393,42.626226 514.60792,90.62224 l -95.616,122.24198 -18.546,-65.52099 c -156.76699,47.21999 -271.32699,192.217 -271.327,363.568 1e-5,170.92899 114.01201,315.598 270.18,363.183 l -0.021,0.097 c 10.324,2.857 17.93001,12.012 17.93,22.986 0,25.999 -29.14899,23.997 -29.14899,23.997 -177.587,-52.54399 -307.125993,-216.318 -307.125997,-410.26299 2e-6,-193.668 129.160007,-357.265 306.354997,-410.054 z"
   id="path2"
   inkscape:connector-curvature="0"
   style="fill:#448adf" />
</svg>